<svg width="232" height="39" viewBox="0 0 232 39" fill="none" xmlns="http://www.w3.org/2000/svg" class="text-orange-600"><path d="M0.190594 27.657V5.319C0.190594 2.208 2.33259 0.371998 5.39259 0.371998C8.60559 0.371998 10.6456 2.208 10.6456 5.319V27.045C10.6456 28.32 11.2576 28.524 11.6146 28.524C11.9206 28.524 12.3286 28.371 12.8386 28.116C16.2556 26.127 18.5506 24.852 21.7636 24.852C26.2006 24.852 28.4446 27.402 28.4446 31.125C28.4446 35.154 26.1496 37.398 20.8456 37.398H10.3396C3.65859 37.398 0.190594 35.613 0.190594 27.657ZM37.8146 37.5C32.7656 37.5 29.8076 34.644 29.8076 29.748C29.8076 24.852 33.4286 22.761 38.5286 22.761C41.5376 22.761 43.9346 23.169 45.9236 23.934H46.0766V23.169C46.0766 21.588 44.8016 20.67 43.2206 20.67H43.0166C41.3336 20.67 40.4156 20.874 38.6306 21.333C37.8656 21.537 37.1516 21.639 36.4886 21.639C33.4796 21.639 31.6946 19.65 31.6946 16.743C31.6946 12.153 39.2936 10.674 42.7616 10.674C51.6866 10.674 55.7156 14.601 55.7156 24.75V32.655C55.7156 35.46 53.9306 37.5 50.9216 37.5C47.6576 37.5 46.0766 35.409 46.0766 32.757V31.584H45.0566C45.0566 34.236 44.2916 37.5 37.8146 37.5ZM38.3246 26.331C38.3246 27.504 38.8856 27.912 41.7416 27.912C44.3426 27.912 45.2096 27.504 45.2096 26.331C45.2096 25.26 44.3426 24.852 41.7416 24.852C38.8856 24.852 38.3246 25.26 38.3246 26.331ZM72.9776 37.5C69.4586 37.5 67.7756 35.205 67.7756 31.686V7.92C67.7756 2.769 71.0396 0.371998 74.9666 0.371998C78.6896 0.371998 81.3926 2.718 82.6166 8.022L86.5946 25.311H87.9206L91.8986 8.022C93.1226 2.718 95.9276 0.371998 99.6506 0.371998C103.578 0.371998 106.842 2.769 106.842 7.92V31.686C106.842 35.205 105.108 37.5 101.589 37.5C98.1716 37.5 96.2846 35.205 96.2846 31.686V17.967C96.2846 17.304 96.2336 16.59 95.4686 16.59C94.8566 16.59 94.6526 17.304 94.4996 17.967L92.5616 30.819C91.8476 35.001 91.1846 37.5 87.2576 37.5C83.4326 37.5 82.6166 35.001 82.0046 30.819L80.0156 17.967C79.9646 17.304 79.7096 16.59 79.0466 16.59C78.3836 16.59 78.2306 17.304 78.2306 17.967V31.686C78.2306 35.205 76.3946 37.5 72.9776 37.5ZM117.403 37.5C112.354 37.5 109.396 34.644 109.396 29.748C109.396 24.852 113.017 22.761 118.117 22.761C121.126 22.761 123.523 23.169 125.512 23.934H125.665V23.169C125.665 21.588 124.39 20.67 122.809 20.67H122.605C120.922 20.67 120.004 20.874 118.219 21.333C117.454 21.537 116.74 21.639 116.077 21.639C113.068 21.639 111.283 19.65 111.283 16.743C111.283 12.153 118.882 10.674 122.35 10.674C131.275 10.674 135.304 14.601 135.304 24.75V32.655C135.304 35.46 133.519 37.5 130.51 37.5C127.246 37.5 125.665 35.409 125.665 32.757V31.584H124.645C124.645 34.236 123.88 37.5 117.403 37.5ZM117.913 26.331C117.913 27.504 118.474 27.912 121.33 27.912C123.931 27.912 124.798 27.504 124.798 26.331C124.798 25.26 123.931 24.852 121.33 24.852C118.474 24.852 117.913 25.26 117.913 26.331ZM137.74 4.911C137.74 2.004 139.627 0.0149993 142.84 0.0149993C146.257 0.0149993 147.889 1.953 147.889 4.86C147.889 7.716 146.257 9.603 142.84 9.603C139.525 9.603 137.74 7.716 137.74 4.911ZM142.84 37.5C139.627 37.5 138.097 35.511 138.097 32.859V15.417C138.097 12.51 139.627 10.674 142.84 10.674C146.053 10.674 147.634 12.51 147.634 15.315V32.859C147.634 35.511 145.9 37.5 142.84 37.5ZM163.297 38.163C156.259 38.163 150.241 36.276 150.241 31.278C150.241 28.371 152.179 26.229 155.086 26.229C157.84 26.229 160.543 27.912 164.266 27.912C166.459 27.912 167.02 27.708 167.02 27.045C167.02 26.229 166.204 26.127 164.011 25.719L160.339 25.005C155.749 24.087 150.904 22.71 150.904 17.559C150.904 12.918 155.137 10.215 162.94 10.215C169.621 10.215 174.823 12.204 174.823 16.08V16.233C174.823 18.885 173.14 20.721 170.743 20.721C168.142 20.721 165.796 19.344 161.92 19.242C161.665 19.191 161.41 19.191 161.155 19.191C159.982 19.191 158.809 19.446 158.809 20.211C158.809 21.027 160.186 21.18 162.889 21.639L166.51 22.302C173.14 23.424 175.486 24.954 175.486 30.105C175.486 35.562 170.437 38.163 163.297 38.163ZM190.341 37.602C182.385 37.602 177.285 32.655 177.285 24.036C177.285 16.131 182.487 10.623 190.341 10.623C199.113 10.623 203.448 16.131 203.448 24.036C203.448 32.655 199.164 37.602 190.341 37.602ZM183.354 23.169C183.354 25.26 185.241 26.025 190.341 26.025C195.441 26.025 197.328 25.26 197.328 23.169C197.328 21.129 195.441 20.415 190.341 20.415C185.241 20.415 183.354 21.129 183.354 23.169ZM210.875 37.5C207.866 37.5 205.928 35.46 205.928 32.808V15.927C205.928 13.071 207.662 10.827 210.875 10.827C213.986 10.827 215.669 13.02 215.669 16.029V18.579H216.587C216.587 12.816 220.259 10.827 223.574 10.827C228.827 10.827 231.173 14.754 231.173 21.69V32.808C231.173 35.46 229.286 37.5 226.277 37.5C223.217 37.5 221.279 35.46 221.279 32.808V23.781C221.279 21.333 220.361 19.905 218.576 19.905C216.536 19.905 215.669 21.588 215.669 23.883V32.808C215.669 35.46 213.884 37.5 210.875 37.5Z" fill="currentColor"></path></svg>